<svg width="12" height="10" viewBox="0 0 12 10" fill="none" xmlns="http://www.w3.org/2000/svg">
<path d="M7.70008 0.00145177L7.67331 0.0126994L7.6831 0.00145177H7.70008ZM1.49011 1.18809C2.98251 -0.0594186 4.36411 0.000459363 4.36411 0.000459363L4.47579 0.1265C2.65064 0.627025 1.82313 1.56423 1.82313 1.56423C1.90775 1.54372 5.59372 -0.900353 10.0591 1.62609C10.0591 1.62609 9.22991 0.749427 7.51702 0.188363L7.66842 0.0173308C7.9053 0.0173308 9.15852 0.0686073 10.4995 1.1957C10.4995 1.1957 12 4.14195 12 7.76141C11.9505 7.69227 11.0692 9.31988 8.80104 9.37579C8.80104 9.37579 8.41707 8.87659 8.14363 8.44057C9.46996 8.0029 9.96647 7.12756 9.96647 7.12756C7.38433 8.99601 5.12111 8.70423 2.41376 7.44184C2.40418 7.44183 2.39474 7.43928 2.38615 7.43441C2.37757 7.42953 2.37008 7.42245 2.36425 7.41372V7.40809C2.35825 7.39949 2.35069 7.39252 2.34208 7.38766C2.33347 7.3828 2.32404 7.38018 2.31446 7.37998H2.26581C2.17676 7.31143 2.0843 7.24891 1.98892 7.19273C1.98892 7.19273 2.48456 8.0684 3.75966 8.50607C3.4252 8.94474 3.0939 9.44328 3.0939 9.44328C0.826653 9.38141 0 7.75413 0 7.75413C0 4.12871 1.49154 1.18809 1.49154 1.18809H1.49011ZM7.84687 6.63068C8.42541 6.63068 8.8966 6.06829 8.8966 5.37754C8.8966 4.6868 8.42772 4.12938 7.84687 4.12938V4.13235C7.27121 4.13235 6.79859 4.69176 6.79715 5.38383C6.79686 6.06961 7.26804 6.63068 7.84687 6.63068ZM4.08894 6.63068C4.66748 6.63068 5.13866 6.06829 5.13866 5.37754C5.13866 4.6868 4.67036 4.12938 4.09182 4.12938L4.08865 4.13235C3.50982 4.13169 3.04008 4.69176 3.04008 5.38317C3.04008 6.06961 3.51011 6.63068 4.08894 6.63068Z" fill="white"/>
</svg>
