<svg width="55" height="30" viewBox="0 0 55 30" fill="none" xmlns="http://www.w3.org/2000/svg">
<path d="M19.8756 0L16.7061 5.43133C13.6417 5.2873 10.8691 5.3477 8.50608 5.60301C6.04978 5.86836 4.03503 6.33535 2.55206 7.05806C1.06909 7.78073 0 8.83891 0 10.3698C0 11.9006 1.06909 13.3186 2.55206 14.5407C4.03503 15.7627 6.04978 16.9081 8.50608 18.0006C13.1812 20.08 19.4563 21.9381 26.4316 23.1871V30H28.5685V23.5467C30.4449 23.8425 32.2706 24.0771 34.0283 24.2524L37.3823 30H52.6311L49.1283 23.9976C50.422 23.734 51.5357 23.3863 52.4479 22.9418C53.9309 22.2191 55 21.1611 55 19.6303C55 18.0994 53.9309 16.6812 52.4479 15.4592C50.965 14.2371 48.9502 13.0917 46.4939 11.9992C44.815 11.2525 42.9296 10.5343 40.8798 9.86262L35.1244 0H19.8756ZM13.9433 7.51602C14.443 7.51646 14.955 7.52377 15.4773 7.53711L10.2255 16.5367C9.82884 16.3731 9.44246 16.2083 9.0696 16.0425C6.74706 15.0094 4.89841 13.9305 3.7127 12.9534C2.52697 11.9763 2.12198 11.2205 2.12198 10.7271C2.12198 10.2335 2.52697 9.61415 3.7127 9.03631C4.89841 8.45848 6.74706 8.00188 9.0696 7.75096C10.5212 7.59413 12.1579 7.51432 13.9433 7.51602ZM42.4599 12.5704C43.706 13.0205 44.8683 13.4849 45.9304 13.9573C48.253 14.9903 50.1016 16.0695 51.2873 17.0466C52.473 18.0237 52.878 18.7795 52.878 19.273C52.878 19.7665 52.473 20.386 51.2873 20.9638C50.4675 21.3633 49.3306 21.7047 47.9395 21.9603L42.4599 12.5704ZM27.5 13.0654L32.6999 21.9761C31.021 21.7868 29.282 21.5433 27.5001 21.2433C26.0366 20.9969 24.6025 20.7218 23.2064 20.4231L27.5 13.0654ZM7.13211 21.8376L2.36897 30H17.6177L19.9577 25.9901L7.13211 21.8376Z" fill="white"/>
</svg>
