<svg width="483" height="484" viewBox="0 0 483 484" fill="none" xmlns="http://www.w3.org/2000/svg">
<path d="M225.853 474.646C232.825 486.466 250.472 486.466 257.443 474.646C277.592 440.485 313.929 382.766 348.084 348.611C382.238 314.457 439.957 278.119 474.119 257.971C485.939 250.999 485.939 233.352 474.119 226.38C439.957 206.232 382.238 169.894 348.084 135.74C313.929 101.585 277.592 43.8665 257.443 9.70521C250.472 -2.11512 232.825 -2.1151 225.853 9.70523C205.705 43.8666 169.367 101.585 135.213 135.74C101.058 169.894 43.3392 206.232 9.17786 226.38C-2.64246 233.352 -2.64245 250.999 9.17788 257.971C43.3392 278.119 101.058 314.457 135.213 348.611C169.367 382.766 205.705 440.485 225.853 474.646Z" fill="white"/>
</svg>
