<svg width="150" height="30" viewBox="0 0 150 30" fill="none" xmlns="http://www.w3.org/2000/svg">
<path d="M73.9561 13.6027V6.22061H79.0274V2.79492H64.6194V6.22061H69.6907V13.6027H73.9561Z" fill="white"/>
<path d="M81.1605 13.6027H98.5037V10.8284H85.426V9.44525H98.5037V6.94434H85.426V5.56121H98.5037V2.79492H81.1605V13.6027Z" fill="white"/>
<path d="M73.0274 19.5256L74.5252 22.7181H71.5215L73.0274 19.5256ZM64.6187 27.2053H69.4213L70.2842 25.3557H75.7625L76.6254 27.2053H81.4281L75.559 16.3975H70.4877L64.6187 27.2053Z" fill="white"/>
<path d="M82.4941 16.3975V27.2053H95.2986V23.7796H86.7596V16.3975H82.4941Z" fill="white"/>
<path d="M97.4313 16.3975V27.2053H101.697V16.3975H97.4313Z" fill="white"/>
<path d="M103.83 27.2053H116.634V24.4309H108.095V23.0478H116.634V20.5469H108.095V19.1637H116.634V16.3975H103.83V27.2053Z" fill="white"/>
<path d="M129.438 22.123L124.636 16.3975H118.767V27.2053H123.032V20.6032L128.909 27.2053H133.712V16.3975H129.438V22.123Z" fill="white"/>
<path d="M140.105 20.046C140.105 19.2259 141.657 19.0419 142.922 19.0419C144.194 19.0419 145.273 19.2335 145.738 20.046H149.998C149.61 16.8267 146.576 16.4205 142.922 16.3975C139.259 16.3975 135.845 17.1026 135.845 20.046C135.838 22.6215 139.927 22.8208 142.836 22.9664C144.474 23.0431 145.738 23.1121 145.738 23.5643C145.738 24.3615 144.187 24.5685 142.922 24.5685C141.649 24.5685 140.571 24.3615 140.105 23.5643H135.845C136.233 26.7607 139.267 27.1976 142.922 27.2053C146.584 27.2053 149.998 26.5077 149.998 23.5643C150.006 20.9812 145.917 20.7819 143.007 20.6363C141.37 20.5596 140.105 20.4983 140.105 20.046Z" fill="white"/>
<path d="M100.636 2.79491V13.6027H104.901V10.9651H108.711L110.77 13.6027H115.312L112.927 10.5711C113.644 10.2414 114.222 9.74278 114.653 9.09142C115.093 8.43202 115.312 7.69219 115.312 6.88C115.345 4.64446 113.432 2.77078 111.177 2.79491H100.636ZM110.103 5.95522C110.624 5.95522 111.039 6.36534 111.039 6.88C111.039 7.12929 110.949 7.34641 110.762 7.53135C110.583 7.70827 110.363 7.79673 110.103 7.79673H104.901V5.95522H110.103Z" fill="white"/>
<path d="M141.596 5.92308L143.094 9.11555H140.09L141.596 5.92308ZM133.188 13.6027H137.99L138.853 11.7532H144.331L145.194 13.6027H149.997L144.128 2.79492H139.057L133.188 13.6027Z" fill="white"/>
<path d="M117.446 2.79491V13.6027H121.712V10.9651H125.521L127.581 13.6027H132.123L129.738 10.5711C130.454 10.2414 131.032 9.74278 131.464 9.09142C131.903 8.43202 132.123 7.69219 132.123 6.88C132.156 4.64446 130.243 2.77078 127.988 2.79491H117.446ZM126.913 5.95522C127.434 5.95522 127.849 6.36534 127.849 6.88C127.849 7.12929 127.76 7.34641 127.573 7.53135C127.394 7.70827 127.174 7.79673 126.913 7.79673H121.712V5.95522H126.913Z" fill="white"/>
<path d="M19.9056 0L16.7313 5.43135C13.6623 5.28732 10.8855 5.34772 8.51893 5.60303C6.05893 5.86838 4.04124 6.33536 2.55604 7.05808C1.07084 7.78075 0 8.83894 0 10.3698C0 11.9007 1.07084 13.3186 2.55604 14.5407C4.04124 15.7627 6.05893 16.9081 8.51893 18.0007C13.2011 20.0801 19.4858 21.9382 26.4716 23.1871V30.0001H28.6114V23.5468C30.4907 23.8426 32.3192 24.0772 34.0795 24.2525L37.4385 30H52.7103L49.2024 23.9977C50.4979 23.734 51.6134 23.3864 52.527 22.9418C54.0122 22.2192 55.0828 21.1612 55.0828 19.6303C55.0828 18.0994 54.0122 16.6813 52.527 15.4592C51.0418 14.2372 49.0239 13.0917 46.5639 11.9992C44.8825 11.2525 42.9943 10.5343 40.9414 9.86265L35.1774 0H19.9056ZM13.9644 7.51603C14.4649 7.51648 14.9777 7.52379 15.5007 7.53714L10.241 16.5368C9.84372 16.3732 9.45671 16.2084 9.08328 16.0425C6.75725 15.0095 4.90591 13.9306 3.71841 12.9535C2.53089 11.9763 2.12534 11.2205 2.12534 10.7271C2.12534 10.2336 2.53089 9.61418 3.71841 9.03634C4.90591 8.4585 6.75725 8.0019 9.08328 7.75098C10.5371 7.59414 12.1763 7.51433 13.9644 7.51603ZM42.5239 12.5704C43.7719 13.0206 44.9358 13.4849 45.9996 13.9574C48.3256 14.9904 50.1771 16.0695 51.3646 17.0466C52.5521 18.0237 52.9577 18.7796 52.9577 19.2731C52.9577 19.7666 52.5521 20.386 51.3646 20.9639C50.5435 21.3634 49.4049 21.7047 48.0117 21.9604L42.5239 12.5704ZM27.5415 13.0654L32.7493 21.9762C31.0678 21.7869 29.3261 21.5434 27.5415 21.2434C26.0758 20.997 24.6397 20.7218 23.2414 20.4232L27.5415 13.0654ZM7.143 21.8377L2.37258 30H17.6443L19.9879 25.9902L7.143 21.8377Z" fill="white"/>
</svg>
