<svg width="24" height="24" viewBox="0 0 24 24" fill="none" xmlns="http://www.w3.org/2000/svg">
<path d="M13.7001 7.00145L13.6733 7.0127L13.6831 7.00145H13.7001ZM7.49011 8.18809C8.98251 6.94058 10.3641 7.00046 10.3641 7.00046L10.4758 7.1265C8.65064 7.62703 7.82313 8.56423 7.82313 8.56423C7.90775 8.54372 11.5937 6.09965 16.0591 8.62609C16.0591 8.62609 15.2299 7.74943 13.517 7.18836L13.6684 7.01733C13.9053 7.01733 15.1585 7.06861 16.4995 8.1957C16.4995 8.1957 18 11.1419 18 14.7614C17.9505 14.6923 17.0692 16.3199 14.801 16.3758C14.801 16.3758 14.4171 15.8766 14.1436 15.4406C15.47 15.0029 15.9665 14.1276 15.9665 14.1276C13.3843 15.996 11.1211 15.7042 8.41376 14.4418C8.40418 14.4418 8.39474 14.4393 8.38615 14.4344C8.37757 14.4295 8.37008 14.4225 8.36425 14.4137V14.4081C8.35825 14.3995 8.35069 14.3925 8.34208 14.3877C8.33347 14.3828 8.32404 14.3802 8.31446 14.38H8.26581C8.17676 14.3114 8.0843 14.2489 7.98892 14.1927C7.98892 14.1927 8.48456 15.0684 9.75966 15.5061C9.4252 15.9447 9.0939 16.4433 9.0939 16.4433C6.82665 16.3814 6 14.7541 6 14.7541C6 11.1287 7.49154 8.18809 7.49154 8.18809H7.49011ZM13.8469 13.6307C14.4254 13.6307 14.8966 13.0683 14.8966 12.3775C14.8966 11.6868 14.4277 11.1294 13.8469 11.1294V11.1324C13.2712 11.1324 12.7986 11.6918 12.7972 12.3838C12.7969 13.0696 13.268 13.6307 13.8469 13.6307ZM10.0889 13.6307C10.6675 13.6307 11.1387 13.0683 11.1387 12.3775C11.1387 11.6868 10.6704 11.1294 10.0918 11.1294L10.0887 11.1324C9.50982 11.1317 9.04008 11.6918 9.04008 12.3832C9.04008 13.0696 9.51011 13.6307 10.0889 13.6307Z" fill="white"/>
</svg>
