<svg width="24" height="24" viewBox="0 0 24 24" fill="none" xmlns="http://www.w3.org/2000/svg">
<path d="M18 9.02478C17.5537 9.19857 17.0782 9.31377 16.5825 9.3697C17.0925 9.09936 17.4818 8.67453 17.6648 8.16247C17.1893 8.41417 16.6642 8.59196 16.1047 8.69118C15.6532 8.26435 15.0097 8 14.3077 8C12.9457 8 11.8492 8.9815 11.8492 10.1847C11.8492 10.3579 11.8657 10.5243 11.9062 10.6828C9.861 10.5942 8.05125 9.72394 6.8355 8.39819C6.62325 8.72514 6.49875 9.09936 6.49875 9.50221C6.49875 10.2586 6.9375 10.9292 7.5915 11.3174C7.19625 11.3107 6.8085 11.2088 6.48 11.0484C6.48 11.055 6.48 11.0637 6.48 11.0723C6.48 12.1337 7.33275 13.0154 8.451 13.2184C8.25075 13.2671 8.0325 13.2904 7.806 13.2904C7.6485 13.2904 7.4895 13.2824 7.34025 13.2531C7.659 14.118 8.5635 14.7539 9.639 14.7746C8.802 15.3559 7.73925 15.7061 6.58875 15.7061C6.387 15.7061 6.1935 15.6982 6 15.6762C7.08975 16.3001 8.38125 16.6563 9.774 16.6563C14.301 16.6563 16.776 13.327 16.776 10.4411C16.776 10.3445 16.7722 10.2513 16.767 10.1588C17.2552 9.85113 17.6655 9.46692 18 9.02478Z" fill="white"/>
</svg>
