<svg width="24" height="24" viewBox="0 0 24 24" fill="none" xmlns="http://www.w3.org/2000/svg">
<path d="M16.6045 9.20844H17V8.04175H13.2599L12.017 12.6251H11.983L10.7513 8.04175H7V9.20841H7.38418C7.473 9.22286 7.5554 9.26373 7.62065 9.3257C7.6859 9.38766 7.73098 9.46784 7.75 9.55579V14.4709C7.7298 14.5557 7.68374 14.6322 7.61821 14.6896C7.55267 14.7471 7.47089 14.7828 7.38418 14.7917H7V15.9584H10V14.7917H9.25V9.62509H9.29376L11.0226 15.9584H12.3786L14.1299 9.62509H14.1667V14.7917H13.4167V15.9584H17V14.7917H16.6045C16.5198 14.7807 16.4405 14.7441 16.3771 14.6868C16.3138 14.6294 16.2694 14.5542 16.25 14.4709V9.55582C16.2684 9.46946 16.3118 9.39045 16.3749 9.32866C16.4379 9.26687 16.5178 9.22505 16.6045 9.20844V9.20844Z" fill="white"/>
</svg>
