<svg width="10" height="8" viewBox="0 0 10 8" fill="none" xmlns="http://www.w3.org/2000/svg">
<path d="M9.60452 1.20844H10V0.041748H6.25989L5.01697 4.62506H4.98297L3.75135 0.041748H0V1.20841H0.384185C0.472999 1.22286 0.555401 1.26373 0.620651 1.3257C0.685902 1.38766 0.730976 1.46784 0.75 1.55579V6.47095C0.7298 6.55574 0.683745 6.63216 0.618208 6.68964C0.55267 6.74711 0.470891 6.78279 0.384185 6.79175H0V7.95844H3V6.79175H2.25V1.62509H2.29376L4.02255 7.95844H5.37855L7.12994 1.62509H7.16672V6.79175H6.41669V7.95844H10V6.79175H9.60452C9.5198 6.78072 9.44046 6.7441 9.37711 6.68677C9.31376 6.62945 9.26941 6.55415 9.25 6.47095V1.55582C9.26837 1.46946 9.31181 1.39045 9.37487 1.32866C9.43793 1.26687 9.51781 1.22505 9.60452 1.20844V1.20844Z" fill="white"/>
</svg>
