<svg width="17" height="17" viewBox="0 0 17 17" fill="none" xmlns="http://www.w3.org/2000/svg">
<g clip-path="url(#clip0_11_1987)">
<path d="M8.23493 4.255C6.02417 4.255 4.23438 6.04675 4.23438 8.25556C4.23438 10.4663 6.02612 12.2561 8.23493 12.2561C10.4457 12.2561 12.2355 10.4644 12.2355 8.25556C12.2355 6.0448 10.4438 4.255 8.23493 4.255ZM8.23493 10.8522C6.79985 10.8522 5.63827 9.68999 5.63827 8.25556C5.63827 6.82113 6.8005 5.6589 8.23493 5.6589C9.66936 5.6589 10.8316 6.82113 10.8316 8.25556C10.8322 9.68999 9.67001 10.8522 8.23493 10.8522Z" fill="white"/>
<path d="M11.5348 0.305635C10.0626 0.23696 6.41606 0.240294 4.94252 0.305635C3.64767 0.366309 2.50551 0.679014 1.58472 1.59979C0.0458335 3.13865 0.242528 5.21223 0.242528 8.25327C0.242528 11.3657 0.0691701 13.3912 1.58472 14.9068C3.1296 16.4509 5.23322 16.2489 8.23831 16.2489C11.3214 16.2489 12.3856 16.2509 13.4757 15.8289C14.9579 15.2535 16.0767 13.9286 16.1861 11.549C16.2554 10.0762 16.2514 6.43038 16.1861 4.95687C16.0541 2.14786 14.5465 0.444319 11.5348 0.305635ZM13.8651 13.8886C12.8563 14.8974 11.4568 14.8074 8.21898 14.8074C4.88518 14.8074 3.54832 14.8567 2.57285 13.8786C1.44936 12.7605 1.65272 10.9649 1.65272 8.2426C1.65272 4.55882 1.27467 1.90583 4.97186 1.71647C5.82131 1.68647 6.07134 1.67647 8.20964 1.67647L8.23965 1.69647C11.7928 1.69647 14.5805 1.32443 14.7479 5.02088C14.7859 5.86431 14.7946 6.11768 14.7946 8.2526C14.7939 11.5477 14.8566 12.8925 13.8651 13.8886Z" fill="white"/>
<path d="M12.2394 5.14436C12.7303 5.14436 13.1284 4.74633 13.1284 4.25535C13.1284 3.76436 12.7303 3.36633 12.2394 3.36633C11.7484 3.36633 11.3503 3.76436 11.3503 4.25535C11.3503 4.74633 11.7484 5.14436 12.2394 5.14436Z" fill="white"/>
</g>
<defs>
<clipPath id="clip0_11_1987">
<rect width="16.0022" height="16.0022" fill="white" transform="translate(0.234375 0.255371)"/>
</clipPath>
</defs>
</svg>
