<svg width="17" height="12" viewBox="0 0 17 12" fill="none" xmlns="http://www.w3.org/2000/svg">
<path d="M16.2344 1.5576C15.6394 1.77845 15.0054 1.92483 14.3444 1.99591C15.0244 1.65237 15.5434 1.11252 15.7874 0.461833C15.1534 0.781679 14.4534 1.0076 13.7074 1.13368C13.1054 0.591294 12.2474 0.255371 11.3114 0.255371C9.49537 0.255371 8.03337 1.5026 8.03337 3.0316C8.03337 3.2516 8.05538 3.46314 8.10938 3.66452C5.38237 3.55199 2.96938 2.44606 1.34837 0.761371C1.06537 1.17683 0.899375 1.65237 0.899375 2.16429C0.899375 3.12552 1.48438 3.9776 2.35637 4.47091C1.82938 4.46245 1.31237 4.33299 0.874375 4.12906C0.874375 4.13753 0.874375 4.14852 0.874375 4.15952C0.874375 5.50829 2.01137 6.6286 3.50237 6.88668C3.23537 6.94845 2.94438 6.97806 2.64237 6.97806C2.43237 6.97806 2.22037 6.96791 2.02137 6.93068C2.44637 8.02983 3.65238 8.83791 5.08638 8.86414C3.97038 9.60283 2.55338 10.0479 1.01938 10.0479C0.750375 10.0479 0.492375 10.0378 0.234375 10.0098C1.68737 10.8027 3.40938 11.2554 5.26638 11.2554C11.3024 11.2554 14.6024 7.0246 14.6024 3.35737C14.6024 3.23468 14.5974 3.11622 14.5904 2.9986C15.2414 2.60768 15.7884 2.11945 16.2344 1.5576Z" fill="white"/>
</svg>
