<svg width="17" height="13" viewBox="0 0 17 13" fill="none" xmlns="http://www.w3.org/2000/svg">
<path d="M10.5011 0.257216L10.4655 0.271509L10.4785 0.257216H10.5011ZM2.22118 1.76513C4.21106 0.179865 6.05318 0.255955 6.05318 0.255955L6.20209 0.416121C3.76857 1.05216 2.66521 2.24311 2.66521 2.24311C2.77804 2.21704 7.69268 -0.888749 13.6466 2.32172C13.6466 2.32172 12.5409 1.2077 10.2571 0.494732L10.4589 0.277394C10.7748 0.277394 12.4457 0.342554 14.2338 1.7748C14.2338 1.7748 16.2344 5.51873 16.2344 10.1181C16.1684 10.0303 14.9932 12.0986 11.9691 12.1696C11.9691 12.1696 11.4571 11.5353 11.0925 10.9812C12.861 10.425 13.523 9.31269 13.523 9.31269C10.0801 11.687 7.06252 11.3162 3.45272 9.71205C3.43995 9.71204 3.42736 9.70881 3.41591 9.70261C3.40447 9.69642 3.39448 9.68742 3.38671 9.67632V9.66917C3.37872 9.65825 3.36862 9.64938 3.35715 9.6432C3.34567 9.63703 3.3331 9.6337 3.32032 9.63344H3.25546C3.13672 9.54634 3.01345 9.4669 2.88627 9.3955C2.88627 9.3955 3.54713 10.5083 5.24726 11.0644C4.80131 11.6219 4.35958 12.2554 4.35958 12.2554C1.33658 12.1768 0.234375 10.1089 0.234375 10.1089C0.234375 5.50192 2.2231 1.76513 2.2231 1.76513H2.22118ZM10.6969 8.68127C11.4683 8.68127 12.0965 7.96662 12.0965 7.08886C12.0965 6.2111 11.4713 5.50276 10.6969 5.50276V5.50654C9.92932 5.50654 9.29916 6.21741 9.29724 7.09685C9.29686 7.9683 9.9251 8.68127 10.6969 8.68127ZM5.6863 8.68127C6.45768 8.68127 7.08593 7.96662 7.08593 7.08886C7.08593 6.2111 6.46152 5.50276 5.69013 5.50276L5.68591 5.50654C4.91414 5.5057 4.28782 6.21741 4.28782 7.09601C4.28782 7.9683 4.91414 8.68127 5.68591 8.68127H5.6863Z" fill="white"/>
</svg>
