<svg width="12" height="9" viewBox="0 0 12 9" fill="none" xmlns="http://www.w3.org/2000/svg">
<path d="M12 1.02478C11.5537 1.19857 11.0782 1.31377 10.5825 1.3697C11.0925 1.09936 11.4818 0.674529 11.6648 0.162473C11.1893 0.414173 10.6642 0.591961 10.1047 0.691176C9.65325 0.264351 9.00975 0 8.30775 0C6.94575 0 5.84925 0.981496 5.84925 2.18473C5.84925 2.35785 5.86575 2.52432 5.90625 2.6828C3.861 2.59424 2.05125 1.72394 0.8355 0.398192C0.62325 0.725135 0.49875 1.09936 0.49875 1.50221C0.49875 2.25864 0.9375 2.92917 1.5915 3.31738C1.19625 3.31072 0.8085 3.20884 0.48 3.04836C0.48 3.05502 0.48 3.06368 0.48 3.07234C0.48 4.13374 1.33275 5.01535 2.451 5.21844C2.25075 5.26705 2.0325 5.29036 1.806 5.29036C1.6485 5.29036 1.4895 5.28237 1.34025 5.25307C1.659 6.11804 2.5635 6.75394 3.639 6.77459C2.802 7.35589 1.73925 7.70614 0.58875 7.70614C0.387 7.70614 0.1935 7.69815 0 7.67618C1.08975 8.3001 2.38125 8.65634 3.774 8.65634C8.301 8.65634 10.776 5.32698 10.776 2.44109C10.776 2.34454 10.7722 2.25131 10.767 2.15876C11.2552 1.85113 11.6655 1.46692 12 1.02478Z" fill="white"/>
</svg>
